<svg xmlns="http://www.w3.org/2000/svg" width="23.641" height="23.607" viewBox="0 0 23.641 23.607">
  <path id="bell" d="M23.641,18.442c0-6.639-5.9-5.164-5.9-10.328a4.719,4.719,0,0,0-.117-1.105,6.4,6.4,0,0,0-4.374-5.333,1.314,1.314,0,0,0,.03-.282,1.478,1.478,0,0,0-2.951,0,1.319,1.319,0,0,0,.03.282A6.527,6.527,0,0,0,5.9,7.979c0,.044,0,.089,0,.135C5.9,13.278,0,11.8,0,18.442c0,1.757,3.933,3.227,9.2,3.6a2.951,2.951,0,0,0,5.211,0c5.265-.371,9.2-1.841,9.2-3.6,0-.005,0-.01,0-.015Zm-4.594,1.247a25.264,25.264,0,0,1-4.306.707,2.95,2.95,0,0,0-5.878,0,25.2,25.2,0,0,1-4.306-.707,7.211,7.211,0,0,1-2.844-1.247,7.234,7.234,0,0,1,2.844-1.247,29.207,29.207,0,0,1,7.244-.828,29.2,29.2,0,0,1,7.244.828,7.211,7.211,0,0,1,2.844,1.247,7.234,7.234,0,0,1-2.844,1.247Z" transform="translate(0 0.001)"/>
</svg>
