<svg xmlns="http://www.w3.org/2000/svg" width="15.688" height="13.211" viewBox="0 0 15.688 13.211">
  <path id="briefcase" d="M15.481,7.431a.206.206,0,0,0-.206.206v4.954a.206.206,0,0,1-.206.206H.619a.206.206,0,0,1-.206-.206V7.637a.206.206,0,1,0-.413,0v4.954a.62.62,0,0,0,.619.619H15.069a.62.62,0,0,0,.619-.619V7.637A.206.206,0,0,0,15.481,7.431ZM10.527,2.064a.206.206,0,0,0,.206-.206V.619A.62.62,0,0,0,10.115,0H5.573a.62.62,0,0,0-.619.619V1.858a.206.206,0,0,0,.413,0V.619A.206.206,0,0,1,5.573.413h4.541a.206.206,0,0,1,.206.206V1.858A.206.206,0,0,0,10.527,2.064Zm4.541.826H.619A.62.62,0,0,0,0,3.509V5.556C0,6.7,3.9,8.239,7.9,8.239c3.94,0,7.792-1.537,7.792-2.683V3.509A.62.62,0,0,0,15.069,2.89Zm.206,2.666c0,.728-3.491,2.271-7.379,2.271C3.953,7.827.413,6.285.413,5.556V3.509A.206.206,0,0,1,.619,3.3H15.069a.206.206,0,0,1,.206.206ZM7.9,9.5c.389,0,.794-.016,1.2-.048a.206.206,0,0,0,.189-.222.2.2,0,0,0-.222-.189,14.769,14.769,0,0,1-2.444-.008.206.206,0,0,0-.035.411c.444.038.884.057,1.308.057Z"/>
</svg>
