<svg xmlns="http://www.w3.org/2000/svg" width="13.211" height="13.211" viewBox="0 0 13.211 13.211">
  <path id="compass" d="M0,6.605A6.605,6.605,0,1,0,6.605,0,6.613,6.613,0,0,0,0,6.605ZM6.605.413A6.193,6.193,0,1,1,.413,6.605,6.2,6.2,0,0,1,6.605.413Zm0,11.559A5.367,5.367,0,1,0,1.239,6.605,5.373,5.373,0,0,0,6.605,11.972Zm-.413-10.3V2.3a.206.206,0,0,0,.413,0V1.651a4.958,4.958,0,0,1,4.933,4.541h-.63a.206.206,0,1,0,0,.413h.651a4.96,4.96,0,0,1-4.954,4.954v-.651a.206.206,0,0,0-.413,0v.63A4.958,4.958,0,0,1,1.651,6.605H2.3a.206.206,0,0,0,0-.413h-.63a4.956,4.956,0,0,1,4.52-4.52ZM3.875,9.512A.206.206,0,0,0,4,9.473L6.313,7.807a1.22,1.22,0,0,0,.292.038,1.227,1.227,0,0,0,1.2-1.522L9.5,3.965a.207.207,0,0,0-.288-.289L6.83,5.391A1.222,1.222,0,0,0,6.6,5.369,1.232,1.232,0,0,0,5.39,6.843L3.707,9.185a.206.206,0,0,0,.168.327Zm1.9-2.9a.826.826,0,1,1,.826.826A.827.827,0,0,1,5.78,6.607ZM8.432,4.749,7.611,5.89a1.249,1.249,0,0,0-.327-.317ZM5.575,7.294a1.25,1.25,0,0,0,.307.315l-1.1.793Z"/>
</svg>
