<svg xmlns="http://www.w3.org/2000/svg" width="9.082" height="13.211" viewBox="0 0 9.082 13.211">
  <path id="paintbrush" d="M6.359,8.67H8.25a.86.86,0,0,0,.833-.788V.788A.86.86,0,0,0,8.25,0H.833A.86.86,0,0,0,0,.788V7.881a.86.86,0,0,0,.833.788H2.881c.144,0,.86.031.86.637a3.983,3.983,0,0,1-.315,1.776l-.02.045.166.072V11.2l-.185-.037a.179.179,0,0,0-.016.043,1.474,1.474,0,0,0-.1.519,1.311,1.311,0,0,0,1.265,1.482,1.316,1.316,0,0,0,1.277-1.482,1.458,1.458,0,0,0-.082-.479.206.206,0,0,0-.049-.125c-.011-.025-.025-.052-.042-.083a3.373,3.373,0,0,1-.279-1.736c0-.256.264-.637.992-.637ZM.413,4.978H8.67V6.605H.413ZM.833.413H8.25a.452.452,0,0,1,.42.375V4.565H.413V.788A.452.452,0,0,1,.833.413ZM5.281,11.235c.012.022.021.04.038.078l0,.007.005.016a1.06,1.06,0,0,1,.078.394c0,.517-.227,1.069-.864,1.069s-.851-.552-.851-1.069a1.06,1.06,0,0,1,.078-.394s0-.009,0-.014l.014-.03.017-.038a4.38,4.38,0,0,0,.351-1.947c0-.829-.8-1.049-1.286-1.049H.833a.452.452,0,0,1-.42-.375V7.018H8.67v.863a.452.452,0,0,1-.42.375H6.359c-1.031,0-1.4.628-1.4,1.049a3.722,3.722,0,0,0,.327,1.929Z"/>
</svg>
