<svg xmlns="http://www.w3.org/2000/svg" width="15.129" height="14.001" viewBox="0 0 15.129 14.001">
  <path id="telescope" d="M12.253,1.012A.219.219,0,0,0,11.948.9L6.739,3.648a.218.218,0,0,0-.1.272l.107.28L3.737,5.849a.218.218,0,0,0-.1.276l.1.24L.546,7.891a.219.219,0,0,0-.108.281l.655,1.579a.219.219,0,0,0,.2.135.212.212,0,0,0,.073-.013L4.705,8.693l.1.24a.219.219,0,0,0,.2.135.211.211,0,0,0,.061-.009l3.183-.917.1.249a.218.218,0,0,0,.268.131L14.3,6.771a.218.218,0,0,0,.139-.29L12.253,1.012ZM1.418,9.393l-.5-1.2L3.907,6.77l.63,1.518-3.119,1.1Zm3.715-.808-.1-.251h0L4.223,6.389h0l-.1-.251,2.772-1.52L7.93,7.3l.164.429Zm3.548-.542-.089-.232a.093.093,0,0,0,0-.015l-.27-.7-1.2-3.153L11.937,1.4l2.009,5.023ZM12.909.137A.219.219,0,1,0,12.5.3l2.625,6.563a.22.22,0,0,0,.2.138.214.214,0,0,0,.081-.016.219.219,0,0,0,.122-.284L12.909.137Zm-4.8,9.05H6.8a.856.856,0,0,0-.875.875v.575l-2.572,3A.219.219,0,0,0,3.519,14a.216.216,0,0,0,.166-.077l2.56-2.986h.993v2.844a.219.219,0,0,0,.438,0V10.937h.993l2.559,2.986a.219.219,0,0,0,.332-.285l-2.572-3V10.1a.882.882,0,0,0-.875-.908ZM8.55,10.5H6.362v-.438A.418.418,0,0,1,6.8,9.625H8.112a.445.445,0,0,1,.438.47Z" transform="translate(-0.422 0.001)"/>
</svg>
