<svg xmlns="http://www.w3.org/2000/svg" width="13.624" height="13.211" viewBox="0 0 13.624 13.211">
  <path id="adjust" d="M12.8,0H.826A1.037,1.037,0,0,0,0,.826V12.385a1.037,1.037,0,0,0,.826.826H12.8a1.037,1.037,0,0,0,.826-.826V.826A1.037,1.037,0,0,0,12.8,0Zm.413,12.385a.73.73,0,0,1-.413.413H.826a.73.73,0,0,1-.413-.413V.826A.73.73,0,0,1,.826.413H12.8a.73.73,0,0,1,.413.413ZM6.812,2.271a.826.826,0,1,0,.826.826A.827.827,0,0,0,6.812,2.271Zm0,1.239A.413.413,0,1,1,7.225,3.1.414.414,0,0,1,6.812,3.509Zm3.3,5.367a.826.826,0,1,0,.826.826A.827.827,0,0,0,10.115,8.876Zm0,1.239a.413.413,0,1,1,.413-.413A.414.414,0,0,1,10.115,10.115Zm-6.605-3.3a.826.826,0,1,0,.826.826A.827.827,0,0,0,3.509,6.812Zm0,1.239a.413.413,0,1,1,.413-.413A.414.414,0,0,1,3.509,8.05Zm0-1.858a.206.206,0,0,0,.206-.206V2.271a.206.206,0,0,0-.413,0V5.986A.206.206,0,0,0,3.509,6.193Zm0,2.89a.206.206,0,0,0-.206.206v1.239a.206.206,0,0,0,.413,0V9.289A.206.206,0,0,0,3.509,9.082Zm3.3-4.541a.206.206,0,0,0-.206.206v5.78a.206.206,0,0,0,.413,0V4.748A.206.206,0,0,0,6.812,4.541Zm3.3,3.716a.206.206,0,0,0,.206-.206V2.271a.206.206,0,1,0-.413,0V8.05A.206.206,0,0,0,10.115,8.257Z"/>
</svg>
