<svg xmlns="http://www.w3.org/2000/svg" width="9.414" height="13.211" viewBox="0 0 9.414 13.211">
  <path id="wine" d="M9.414,3.163A6.134,6.134,0,0,0,8.588.09.206.206,0,0,0,8.418,0H1a.206.206,0,0,0-.17.09A6.137,6.137,0,0,0,0,3.163C0,5.612,1.953,8.335,4.541,8.476v3.5H2.849a.765.765,0,0,0-.826.795V13a.206.206,0,0,0,.206.206H7.184A.206.206,0,0,0,7.39,13V12.8a.789.789,0,0,0-.826-.826H4.954v-3.5c2.588-.14,4.459-2.864,4.459-5.313ZM6.977,12.8H2.436v-.031a.4.4,0,0,1,.413-.413H6.565A.419.419,0,0,1,6.977,12.8ZM1.107.413h7.2A5.888,5.888,0,0,1,9,3.067a4.988,4.988,0,0,0-1.144-.128,4.551,4.551,0,0,0-2.6.748,4.149,4.149,0,0,1-2.4.693A4.143,4.143,0,0,1,.459,3.686L.447,3.678a4.366,4.366,0,0,1-.034-.516A5.934,5.934,0,0,1,1.107.413ZM.541,4.206a4.36,4.36,0,0,0,2.314.585,4.551,4.551,0,0,0,2.6-.748,4.152,4.152,0,0,1,2.4-.693,4.511,4.511,0,0,1,1.131.132C8.821,5.676,7.012,8.076,4.707,8.076,2.654,8.076,1,6.172.541,4.206Z"/>
</svg>
