<svg xmlns="http://www.w3.org/2000/svg" width="13.211" height="13.211" viewBox="0 0 13.211 13.211">
  <path id="expand" d="M13.211,12.592V.619A.62.62,0,0,0,12.592,0H.619A.62.62,0,0,0,0,.619V4.335a.206.206,0,1,0,.413,0V.619A.207.207,0,0,1,.619.413H12.592A.207.207,0,0,1,12.8.619V12.592a.207.207,0,0,1-.206.206H8.876a.206.206,0,1,0,0,.413h3.716A.62.62,0,0,0,13.211,12.592ZM.619,5.367A.62.62,0,0,0,0,5.986v6.605a.62.62,0,0,0,.619.619H7.225a.62.62,0,0,0,.619-.619V5.659l2.89-2.89v2.8a.206.206,0,1,0,.413,0v-3.3a.206.206,0,0,0-.206-.206h-3.3a.206.206,0,0,0,0,.413h2.8l-2.89,2.89H.619Zm6.812,7.225a.207.207,0,0,1-.206.206H.619a.207.207,0,0,1-.206-.206V5.986A.207.207,0,0,1,.619,5.78H7.431Z"/>
</svg>
