<svg xmlns="http://www.w3.org/2000/svg" width="15.741" height="13.492" viewBox="0 0 15.741 13.492">
  <path id="list" d="M17.618,12.022H11.1c-.62,0-.675.5-.675,1.124s.054,1.124.675,1.124h6.521c.621,0,.675-.5.675-1.124S18.238,12.022,17.618,12.022Zm2.249,5.622H11.1c-.621,0-.675.5-.675,1.124s.054,1.124.675,1.124h8.77c.621,0,.675-.5.675-1.124S20.487,17.643,19.866,17.643ZM11.1,8.649h8.77c.621,0,.675-.5.675-1.124S20.487,6.4,19.866,6.4H11.1c-.621,0-.675.5-.675,1.124S10.476,8.649,11.1,8.649ZM7.5,12.022H5.475c-.62,0-.675.5-.675,1.124s.054,1.124.675,1.124H7.5c.621,0,.675-.5.675-1.124S8.119,12.022,7.5,12.022Zm0,5.622H5.475c-.62,0-.675.5-.675,1.124s.054,1.124.675,1.124H7.5c.621,0,.675-.5.675-1.124S8.119,17.643,7.5,17.643ZM7.5,6.4H5.475c-.62,0-.675.5-.675,1.124s.054,1.124.675,1.124H7.5c.621,0,.675-.5.675-1.124S8.119,6.4,7.5,6.4Z" transform="translate(-4.8 -6.4)"/>
</svg>
