<svg xmlns="http://www.w3.org/2000/svg" width="17.54" height="12.689" viewBox="0 0 17.54 12.689">
  <path id="bomb" d="M15.963,5.114l1.578.223-1.4.743,1.017.929-1.472-.186.911,1.9L14.77,7.343,13.262,9.164l.7-2.266L11.754,8.087,13.3,6.415,13.191,6a3.448,3.448,0,0,1-1.623.395A5.431,5.431,0,0,1,8.52,4.808S7.145,3.354,5.99,3.354C4.8,3.354,4.918,5.142,4.919,5.16H6.265V6.376a4.511,4.511,0,0,1,2.867,4.259A4.566,4.566,0,1,1,2.9,6.375V5.159H4.1a2.919,2.919,0,0,1,.552-2.045A1.793,1.793,0,0,1,6,2.534c1.6,0,3.042,1.687,3.042,1.687a4.517,4.517,0,0,0,2.58,1.357,4.867,4.867,0,0,0,1.1-.264l-.868-.683,1.508.111L12.211,2.959,14.1,4.3l.21-1.263.35,1.152,1.4-1.672-.316,1.858L17.364,4l-1.4,1.115Z" transform="translate(0 -2.513)" fill="#db2525"/>
</svg>
