<svg xmlns="http://www.w3.org/2000/svg" width="12.798" height="13.211" viewBox="0 0 12.798 13.211">
  <path id="grid" d="M11.766,4.541a.206.206,0,0,0,0-.413H8.67v-3.1a.206.206,0,0,0-.413,0v3.1H4.541v-3.1a.206.206,0,0,0-.413,0v3.1h-3.1a.206.206,0,0,0,0,.413h3.1V8.257h-3.1a.206.206,0,0,0,0,.413h3.1v3.509a.206.206,0,0,0,.413,0V8.67H8.257v3.509a.206.206,0,0,0,.413,0V8.67h3.1a.206.206,0,0,0,0-.413H8.67V4.541ZM8.257,8.257H4.541V4.541H8.257ZM12.8,12.592V.619A.62.62,0,0,0,12.179,0H.619A.62.62,0,0,0,0,.619V12.592a.62.62,0,0,0,.619.619H12.179A.62.62,0,0,0,12.8,12.592Zm-12.385,0V.619A.207.207,0,0,1,.619.413H12.179a.207.207,0,0,1,.206.206V12.592a.207.207,0,0,1-.206.206H.619A.207.207,0,0,1,.413,12.592Z"/>
</svg>
