<svg xmlns="http://www.w3.org/2000/svg" width="12.616" height="11.615" viewBox="0 0 12.616 11.615">
  <path id="basket" d="M0,6.587V5.366H1.526L4.591,2.3a.592.592,0,0,1-.038-.19.61.61,0,1,1,.61.61A.6.6,0,0,1,5.037,2.7L2.365,5.366h7.876L7.586,2.689a.582.582,0,0,1-.159.032.61.61,0,1,1,.61-.61A.6.6,0,0,1,8,2.287l3.08,3.08h1.535V6.587Zm10.121,6.065c-.119.477-.45.451-.45.451l-6.754.013c-.344,0-.437-.436-.437-.436L.7,7l11.222-.011-1.8,5.663ZM4.069,7.808H3.662V9.843h.407Zm0,2.442H3.662v2.035h.407Zm.814-2.442H4.477V9.843h.407Zm0,2.442H4.477v2.035h.407ZM5.7,7.808H5.29V9.843H5.7Zm0,2.442H5.29v2.035H5.7Zm.814-2.442H6.1V9.843h.407Zm0,2.442H6.1v2.035h.407Zm.814-2.442H6.918V9.843h.407Zm0,2.442H6.918v2.035h.407Zm.814-2.442H7.732V9.843h.407Zm0,2.442H7.732v2.035h.407Zm.814-2.442H8.546V9.843h.407Zm0,2.442H8.546v2.035h.407Z" transform="translate(0 -1.5)" fill="#f80"/>
</svg>
