<svg xmlns="http://www.w3.org/2000/svg" width="12.982" height="13.284" viewBox="0 0 12.982 13.284">
  <path id="rocket" d="M9.913,11.3s5.328-3.845,4.738-8.246a.35.35,0,0,0-.084-.2.328.328,0,0,0-.2-.087c-4.3-.6-8.057,4.848-8.057,4.848-3.26-.39-3.022.259-4.509,3.832-.284.681.176.916.682.724l1.622-.612,1.955,2-.6,1.66c-.187.518.042.99.708.7C9.66,14.393,10.3,14.637,9.914,11.3Zm.761-4.465a1.2,1.2,0,0,1,0-1.673,1.139,1.139,0,0,1,1.635,0,1.2,1.2,0,0,1,0,1.673A1.139,1.139,0,0,1,10.675,6.836Z" transform="translate(-1.714 -2.72)" fill="#004e9d"/>
</svg>
