<svg xmlns="http://www.w3.org/2000/svg" width="7.466" height="6.912" viewBox="0 0 7.466 6.912">
  <path id="Fill_3" data-name="Fill 3" d="M3.733,0c.023,0,.026.01.029.017L4.487,2.2a.623.623,0,0,0,.595.422H7.435c.013,0,.024,0,.029.017s0,.013-.009.021L5.545,4.012a.6.6,0,0,0-.227.682l.728,2.189c0,.009,0,.01,0,.013a.041.041,0,0,1-.03.016A.03.03,0,0,1,6,6.9L4.1,5.558a.638.638,0,0,0-.735,0L1.468,6.9a.031.031,0,0,1-.019.007A.041.041,0,0,1,1.42,6.9s0,0,0-.013l.728-2.189a.6.6,0,0,0-.227-.682L.01,2.656C0,2.649,0,2.646,0,2.636s.016-.017.029-.017H2.384A.623.623,0,0,0,2.979,2.2L3.7.017C3.706.01,3.71,0,3.733,0" fill="#db2525"/>
</svg>
