<svg xmlns="http://www.w3.org/2000/svg" width="11.455" height="14.021" viewBox="0 0 11.455 14.021">
  <path id="medal2" d="M5.653,8.742c-.547,0-.619-.255-.619-.255L2.9,12.675l1.709-.192L5.557,13.9S7.524,9.8,7.524,9.825C6.505,9.8,6.91,8.769,5.653,8.742Zm4.8.449a1.308,1.308,0,0,1,1.177-.679.708.708,0,0,0,.788-.789A1.307,1.307,0,0,1,13.1,6.548a.708.708,0,0,0,.289-1.077,1.307,1.307,0,0,1,0-1.358A.708.708,0,0,0,13.1,3.036a1.309,1.309,0,0,1-.679-1.176.708.708,0,0,0-.788-.788A1.308,1.308,0,0,1,10.458.392.708.708,0,0,0,9.381.1,1.306,1.306,0,0,1,8.023.1.708.708,0,0,0,6.946.392a1.308,1.308,0,0,1-1.176.679.708.708,0,0,0-.788.789A1.308,1.308,0,0,1,4.3,3.036a.708.708,0,0,0-.289,1.077,1.307,1.307,0,0,1,0,1.358A.708.708,0,0,0,4.3,6.548a1.308,1.308,0,0,1,.679,1.176.708.708,0,0,0,.788.789,1.308,1.308,0,0,1,1.176.679.708.708,0,0,0,1.077.289,1.308,1.308,0,0,1,1.358,0,.708.708,0,0,0,1.077-.289ZM9.293,6.978H8.514V4.037a2.687,2.687,0,0,1-1.008.591V3.921a2.255,2.255,0,0,0,.663-.378,1.437,1.437,0,0,0,.491-.65h.632V6.978ZM12.2,8.65c-1.557.164-1.241.549-1.6.85a1.1,1.1,0,0,1-.921.353l2.4,4.134.59-1.53,1.682.219L12.2,8.65Z" transform="translate(-2.902 0.034)" fill="#0eb245"/>
</svg>
